<?xml version="1.0" encoding="UTF-8" standalone="no"?>
<!-- Created with Inkscape (http://www.inkscape.org/) -->

<svg
   width="332"
   height="700"
   viewBox="0 0 332 700"
   version="1.1"
   id="svg1"
   inkscape:version="1.4.3 (0d15f75, 2025-12-25)"
   sodipodi:docname="floor1.svg"
   xml:space="preserve"
   xmlns:inkscape="http://www.inkscape.org/namespaces/inkscape"
   xmlns:sodipodi="http://sodipodi.sourceforge.net/DTD/sodipodi-0.dtd"
   xmlns:xlink="http://www.w3.org/1999/xlink"
   xmlns="http://www.w3.org/2000/svg"
   xmlns:svg="http://www.w3.org/2000/svg"><sodipodi:namedview
     id="namedview1"
     pagecolor="#333333"
     bordercolor="#eeeeee"
     borderopacity="1"
     inkscape:showpageshadow="false"
     inkscape:pageopacity="0"
     inkscape:pagecheckerboard="0"
     inkscape:deskcolor="#333333"
     inkscape:document-units="px"
     borderlayer="true"
     showgrid="false"
     shape-rendering="crispEdges"
     showguides="false"
     inkscape:zoom="1.1842857"
     inkscape:cx="166.34499"
     inkscape:cy="417.55127"
     inkscape:window-width="1920"
     inkscape:window-height="1009"
     inkscape:window-x="-8"
     inkscape:window-y="-8"
     inkscape:window-maximized="1"
     inkscape:current-layer="layer1"
     showborder="true"><inkscape:grid
       id="grid1"
       units="px"
       originx="0"
       originy="0"
       spacingx="1"
       spacingy="1"
       empcolor="#0099e5"
       empopacity="0.30196078"
       color="#0099e5"
       opacity="0.14901961"
       empspacing="6"
       dotted="true"
       gridanglex="30"
       gridanglez="30"
       visible="false" /></sodipodi:namedview><defs
     id="defs1"><clipPath
       clipPathUnits="userSpaceOnUse"
       id="clipPath93"><rect
         style="opacity:1;fill:#666666;stroke:#000000;stroke-width:0;stroke-linecap:round;stroke-linejoin:round;stroke-dasharray:none;stroke-opacity:1"
         id="rect93"
         width="57.3792"
         height="10.4832"
         x="414.1066"
         y="-727.66418" /></clipPath><clipPath
       clipPathUnits="userSpaceOnUse"
       id="clipPath94"><rect
         style="opacity:1;fill:#666666;stroke:#000000;stroke-width:0;stroke-linecap:round;stroke-linejoin:round;stroke-dasharray:none;stroke-opacity:1"
         id="rect94"
         width="57.3792"
         height="5.5334392"
         x="414.10657"
         y="-631.10736" /></clipPath><symbol
       id="g23"><rect
         style="fill:#b27d6d;fill-opacity:1;stroke-width:0;stroke-linecap:round;stroke-linejoin:round"
         id="rect2-8-7-3"
         width="2"
         height="76"
         x="143"
         y="159" /><rect
         style="fill:#8f5c4d;fill-opacity:1;stroke-width:0;stroke-linecap:round;stroke-linejoin:round"
         id="rect2-8-6-2-3"
         width="2"
         height="78"
         x="187"
         y="157" /><rect
         style="fill:#8f5c4d;fill-opacity:1;stroke-width:0;stroke-linecap:round;stroke-linejoin:round"
         id="rect2-8-6-2-3-5"
         width="54"
         height="2"
         x="138"
         y="238" /><rect
         style="fill:#8f5c4d;fill-opacity:1;stroke-width:0;stroke-linecap:round;stroke-linejoin:round"
         id="rect2-8-6-2-3-5-4"
         width="3"
         height="2"
         x="189"
         y="157" /><rect
         style="fill:#8f5c4d;fill-opacity:1;stroke-width:0;stroke-linecap:round;stroke-linejoin:round"
         id="rect2-8-6-2-3-5-4-3"
         width="7"
         height="2"
         x="138"
         y="157" /><rect
         style="fill:#8f5c4d;fill-opacity:1;stroke-width:0;stroke-linecap:round;stroke-linejoin:round"
         id="rect2-8-6-2-3-5-4-3-9"
         width="1"
         height="8"
         x="138"
         y="149" /><rect
         style="fill:#8f5c4d;fill-opacity:1;stroke-width:0;stroke-linecap:round;stroke-linejoin:round"
         id="rect2-8-6-2-3-5-4-3-9-8"
         width="1"
         height="2"
         x="138"
         y="236" /><g
         id="g2"
         transform="translate(208,81)"><rect
           style="fill:#f0eadc;fill-opacity:1;stroke-width:0;stroke-linecap:round;stroke-linejoin:round"
           id="rect2-4-1-5-4"
           width="42"
           height="78"
           x="-63"
           y="76" /><rect
           style="fill:#333333;fill-opacity:1;stroke:none;stroke-width:0.106693;stroke-linecap:round;stroke-linejoin:round;stroke-dasharray:none;stroke-opacity:1"
           id="rect10-5-5"
           width="36"
           height="72"
           x="-60"
           y="79" /><path
           id="rect10-5-5-9"
           style="fill:#2b2b2b;fill-opacity:1;stroke:none;stroke-width:0.00695049;stroke-linecap:round;stroke-linejoin:round;stroke-dasharray:none;stroke-opacity:1"
           d="m -60,79 v 1 h 10 v 16 h 1 V 80 79 h -1 z" /><path
           id="rect10-5-5-9-4"
           style="fill:#2b2b2b;fill-opacity:1;stroke:none;stroke-width:0.00695049;stroke-linecap:round;stroke-linejoin:round;stroke-dasharray:none;stroke-opacity:1"
           d="m -35,79 v 1 h 10 v 16 h 1 V 80 79 h -1 z" /><path
           id="rect10-5-5-9-4-9-8"
           style="fill:#2b2b2b;fill-opacity:1;stroke:none;stroke-width:0.00725955;stroke-linecap:round;stroke-linejoin:round;stroke-dasharray:none;stroke-opacity:1"
           d="m -48,79 v 1 h 11 v 16 h 1 V 80 79 h -1 z" /><path
           id="rect10-5-5-9-6"
           style="fill:#2b2b2b;fill-opacity:1;stroke:none;stroke-width:0.00695049;stroke-linecap:round;stroke-linejoin:round;stroke-dasharray:none;stroke-opacity:1"
           d="m -60,97 v 1 h 10 v 16 h 1 V 98 97 h -1 z" /><path
           id="rect10-5-5-9-4-1"
           style="fill:#2b2b2b;fill-opacity:1;stroke:none;stroke-width:0.00695049;stroke-linecap:round;stroke-linejoin:round;stroke-dasharray:none;stroke-opacity:1"
           d="m -35,97 v 1 h 10 v 16 h 1 V 98 97 h -1 z" /><path
           id="rect10-5-5-9-4-9-8-1"
           style="fill:#2b2b2b;fill-opacity:1;stroke:none;stroke-width:0.00725955;stroke-linecap:round;stroke-linejoin:round;stroke-dasharray:none;stroke-opacity:1"
           d="m -48,97 v 1 h 11 v 16 h 1 V 98 97 h -1 z" /><path
           id="rect10-5-5-9-6-9"
           style="fill:#2b2b2b;fill-opacity:1;stroke:none;stroke-width:0.00695049;stroke-linecap:round;stroke-linejoin:round;stroke-dasharray:none;stroke-opacity:1"
           d="m -60,116 v 1 h 10 v 16 h 1 v -16 -1 h -1 z" /><path
           id="rect10-5-5-9-4-1-6"
           style="fill:#2b2b2b;fill-opacity:1;stroke:none;stroke-width:0.00695049;stroke-linecap:round;stroke-linejoin:round;stroke-dasharray:none;stroke-opacity:1"
           d="m -35,116 v 1 h 10 v 16 h 1 v -16 -1 h -1 z" /><path
           id="rect10-5-5-9-4-9-8-1-6"
           style="fill:#2b2b2b;fill-opacity:1;stroke:none;stroke-width:0.00725955;stroke-linecap:round;stroke-linejoin:round;stroke-dasharray:none;stroke-opacity:1"
           d="m -48,116 v 1 h 11 v 16 h 1 v -16 -1 h -1 z" /><path
           id="rect10-5-5-9-6-9-6"
           style="fill:#2b2b2b;fill-opacity:1;stroke:none;stroke-width:0.00695049;stroke-linecap:round;stroke-linejoin:round;stroke-dasharray:none;stroke-opacity:1"
           d="m -60,134 v 1 h 10 v 16 h 1 v -16 -1 h -1 z" /><path
           id="rect10-5-5-9-4-1-6-4"
           style="fill:#2b2b2b;fill-opacity:1;stroke:none;stroke-width:0.00695049;stroke-linecap:round;stroke-linejoin:round;stroke-dasharray:none;stroke-opacity:1"
           d="m -35,134 v 1 h 10 v 16 h 1 v -16 -1 h -1 z" /><path
           id="rect10-5-5-9-4-9-8-1-6-4"
           style="fill:#2b2b2b;fill-opacity:1;stroke:none;stroke-width:0.00725955;stroke-linecap:round;stroke-linejoin:round;stroke-dasharray:none;stroke-opacity:1"
           d="m -48,134 v 1 h 11 v 16 h 1 v -16 -1 h -1 z" /><rect
           style="fill:#b1ab94;fill-opacity:1;stroke-width:0;stroke-linecap:round;stroke-linejoin:round"
           id="rect2-4-1-5-2-7-1-8-8-9"
           width="54"
           height="9.000001"
           x="-69"
           y="67" /><rect
           style="fill:#b1ab94;fill-opacity:1;stroke-width:0;stroke-linecap:round;stroke-linejoin:round"
           id="rect2-4-1-5-2-7-1-8-8-4-2"
           width="54"
           height="3.0000002"
           x="-69"
           y="154" /><path
           id="rect2-4-1-5-2-7-1-8-8-4-3-5"
           style="fill:#988f71;fill-opacity:1;stroke-width:0;stroke-linecap:round;stroke-linejoin:round"
           d="m -69,155 v 1 1 h 1 52 v -1 h -52 v -1 z" /><path
           id="rect2-4-1-5-2-7-1-8-8-4-3-3-1"
           style="fill:#988f71;fill-opacity:1;stroke-width:0;stroke-linecap:round;stroke-linejoin:round"
           d="m -69,68 v 7 1 h 53 v -1 h -52 v -7 z" /><path
           id="rect2-4-1-5-2-7-1-8-8-4-3-3-0-3"
           style="fill:#cdc8b9;fill-opacity:1;stroke-width:0;stroke-linecap:round;stroke-linejoin:round"
           d="m -69,67 v 1 h 53 v 8 h 1 v -8 -1 z" /><path
           id="rect2-4-1-5-2-7-1-8-8-4-3-3-0-2-8"
           style="fill:#cdc8b9;fill-opacity:1;stroke-width:0;stroke-linecap:round;stroke-linejoin:round"
           d="m -69,154 v 1 h 53 v 2 h 1 v -2 -1 z" /><rect
           style="fill:#d9c8a4;fill-opacity:1;stroke-width:0;stroke-linecap:round;stroke-linejoin:round"
           id="rect2-4-1-5-264-2"
           width="1"
           height="78"
           x="-22"
           y="76" /><rect
           style="fill:#d9c8a4;fill-opacity:1;stroke-width:0;stroke-linecap:round;stroke-linejoin:round"
           id="rect2-4-1-5-264-5-1"
           width="41"
           height="1"
           x="-63"
           y="76" /><rect
           style="fill:#d9c8a4;fill-opacity:1;stroke-width:0;stroke-linecap:round;stroke-linejoin:round"
           id="rect2-4-1-5-264-5-1-5"
           width="2"
           height="1"
           x="-24"
           y="116" /><rect
           style="fill:#d9c8a4;fill-opacity:1;stroke-width:0;stroke-linecap:round;stroke-linejoin:round"
           id="rect2-4-1-5-264-5-1-5-1"
           width="3"
           height="1"
           x="-63"
           y="116" /><path
           id="rect2-4-1-5-2-7"
           style="fill:#f0eadc;fill-opacity:1;stroke-width:0;stroke-linecap:round;stroke-linejoin:round"
           d="m -49,79 v 17 h -11 v 1 h 11 v 17 h -11 v 2 h 11 v 17 h -11 v 1 h 11 v 17 h 1 v -17 h 12 v 17 h 1 v -17 h 11 v -1 h -11 v -17 h 11 v -2 H -35 V 97 h 11 V 96 H -35 V 79 h -1 V 96 H -48 V 79 Z m 1,18 h 12 v 17 h -12 z m 0,19 h 12 v 17 h -12 z" /></g></symbol></defs><g
     inkscape:label="Layer 1"
     inkscape:groupmode="layer"
     id="layer1"><use
       xlink:href="#g23"
       id="use23"
       transform="translate(2.3e-6,481.2)" /><use
       xlink:href="#g23"
       id="use1"
       transform="translate(-91.999997,481.2)" /><use
       xlink:href="#g23"
       id="use1-6"
       transform="translate(94.000003,481.2)" /><path
       id="rect2-6"
       style="fill:#1a1a1a;fill-opacity:1;stroke-width:0;stroke-linecap:round;stroke-linejoin:round"
       d="M 16.000002,206 V 686 H 316 V 206 Z m 12,12 H 304 V 674 H 28.000002 Z"
       sodipodi:nodetypes="cccccccccc" /><path
       id="rect2-6-79"
       style="fill:#1a1a1a;fill-opacity:1;stroke-width:0;stroke-linecap:round;stroke-linejoin:round"
       d="m 56.579013,14 v 12 180 h 12 V 26 H 284.57901 v 180 h 12 V 26 14 h -12 z" /><rect
       style="fill:#b3b3b3;stroke-width:0.104564;stroke-linecap:round;stroke-linejoin:round"
       id="rect2"
       width="228"
       height="48"
       x="76"
       y="218" /><rect
       style="fill:#f9f9f9;stroke-width:0.1;stroke-linecap:round;stroke-linejoin:round"
       id="rect6"
       width="216"
       height="180"
       x="68.57901"
       y="26" /><rect
       style="fill:#f9f9f9;stroke-width:0.1;stroke-linecap:round;stroke-linejoin:round"
       id="rect6-8"
       width="216"
       height="180"
       x="28.000002"
       y="218" /></g></svg>
